<svg width="178" height="100" viewBox="0 0 178 100" fill="none" xmlns="http://www.w3.org/2000/svg">
<g filter="url(#filter0_d_82_1269)">
<mask id="path-1-inside-1_82_1269" fill="white">
<path fill-rule="evenodd" clip-rule="evenodd" d="M67.5838 0C66.7881 0 66.0251 0.316071 65.4624 0.87868L60.3411 6V51H117.341V6H87.3411L82.2198 0.87868C81.6572 0.316071 80.8941 0 80.0985 0H67.5838Z"/>
</mask>
<path fill-rule="evenodd" clip-rule="evenodd" d="M67.5838 0C66.7881 0 66.0251 0.316071 65.4624 0.87868L60.3411 6V51H117.341V6H87.3411L82.2198 0.87868C81.6572 0.316071 80.8941 0 80.0985 0H67.5838Z" fill="white"/>
<path d="M65.4624 0.87868L64.4018 -0.18198L64.4018 -0.18198L65.4624 0.87868ZM60.3411 6L59.2805 4.93934C58.9992 5.22064 58.8411 5.60218 58.8411 6H60.3411ZM60.3411 51H58.8411C58.8411 51.8284 59.5127 52.5 60.3411 52.5V51ZM117.341 51V52.5C118.17 52.5 118.841 51.8284 118.841 51H117.341ZM117.341 6H118.841C118.841 5.17157 118.17 4.5 117.341 4.5V6ZM87.3411 6L86.2805 7.06066C86.5618 7.34196 86.9433 7.5 87.3411 7.5V6ZM82.2198 0.87868L81.1591 1.93934L81.1591 1.93934L82.2198 0.87868ZM66.5231 1.93934C66.8044 1.65804 67.1859 1.5 67.5838 1.5V-1.5C66.3903 -1.5 65.2457 -1.02589 64.4018 -0.18198L66.5231 1.93934ZM61.4018 7.06066L66.5231 1.93934L64.4018 -0.18198L59.2805 4.93934L61.4018 7.06066ZM61.8411 51V6H58.8411V51H61.8411ZM117.341 49.5H60.3411V52.5H117.341V49.5ZM115.841 6V51H118.841V6H115.841ZM87.3411 7.5H117.341V4.5H87.3411V7.5ZM81.1591 1.93934L86.2805 7.06066L88.4018 4.93934L83.2805 -0.181981L81.1591 1.93934ZM80.0985 1.5C80.4963 1.5 80.8778 1.65804 81.1591 1.93934L83.2805 -0.18198C82.4366 -1.02589 81.292 -1.5 80.0985 -1.5V1.5ZM67.5838 1.5H80.0985V-1.5H67.5838V1.5Z" fill="#373341" mask="url(#path-1-inside-1_82_1269)"/>
</g>
<g filter="url(#filter1_d_82_1269)">
<mask id="path-3-inside-2_82_1269" fill="white">
<path fill-rule="evenodd" clip-rule="evenodd" d="M67.5838 0C66.7881 0 66.0251 0.316071 65.4624 0.87868L60.3411 6V51H117.341V6H87.3411L82.2198 0.87868C81.6572 0.316071 80.8941 0 80.0985 0H67.5838Z"/>
</mask>
<path fill-rule="evenodd" clip-rule="evenodd" d="M67.5838 0C66.7881 0 66.0251 0.316071 65.4624 0.87868L60.3411 6V51H117.341V6H87.3411L82.2198 0.87868C81.6572 0.316071 80.8941 0 80.0985 0H67.5838Z" fill="white"/>
<path d="M65.4624 0.87868L64.4018 -0.18198L64.4018 -0.18198L65.4624 0.87868ZM60.3411 6L59.2805 4.93934C58.9992 5.22064 58.8411 5.60218 58.8411 6H60.3411ZM60.3411 51H58.8411C58.8411 51.8284 59.5127 52.5 60.3411 52.5V51ZM117.341 51V52.5C118.17 52.5 118.841 51.8284 118.841 51H117.341ZM117.341 6H118.841C118.841 5.17157 118.17 4.5 117.341 4.5V6ZM87.3411 6L86.2805 7.06066C86.5618 7.34196 86.9433 7.5 87.3411 7.5V6ZM82.2198 0.87868L81.1591 1.93934L81.1591 1.93934L82.2198 0.87868ZM66.5231 1.93934C66.8044 1.65804 67.1859 1.5 67.5838 1.5V-1.5C66.3903 -1.5 65.2457 -1.02589 64.4018 -0.18198L66.5231 1.93934ZM61.4018 7.06066L66.5231 1.93934L64.4018 -0.18198L59.2805 4.93934L61.4018 7.06066ZM61.8411 51V6H58.8411V51H61.8411ZM117.341 49.5H60.3411V52.5H117.341V49.5ZM115.841 6V51H118.841V6H115.841ZM87.3411 7.5H117.341V4.5H87.3411V7.5ZM81.1591 1.93934L86.2805 7.06066L88.4018 4.93934L83.2805 -0.181981L81.1591 1.93934ZM80.0985 1.5C80.4963 1.5 80.8778 1.65804 81.1591 1.93934L83.2805 -0.18198C82.4366 -1.02589 81.292 -1.5 80.0985 -1.5V1.5ZM67.5838 1.5H80.0985V-1.5H67.5838V1.5Z" fill="#373341" mask="url(#path-3-inside-2_82_1269)"/>
</g>
<g filter="url(#filter2_i_82_1269)">
<rect x="63.3411" y="15" width="51" height="33" fill="#E2A19C"/>
</g>
<rect x="64.0911" y="15.75" width="49.5" height="31.5" stroke="#373341" stroke-width="1.5"/>
<path d="M64.8411 15.8276L89.3411 31.8276L113.341 15.8276" stroke="#373341" stroke-width="1.5"/>
<mask id="path-8-outside-3_82_1269" maskUnits="userSpaceOnUse" x="0" y="73" width="178" height="27" fill="black">
<rect fill="white" y="73" width="178" height="27"/>
<path d="M2 75H11.3333V77.3333H4.33333V96H2V75ZM4.33333 96H11.3333V98.3333H4.33333V96ZM11.3333 93.6667H13.6667V96H11.3333V93.6667ZM11.3333 77.3333H13.6667V79.6667H11.3333V77.3333ZM13.6667 79.6667H16V93.6667H13.6667V79.6667Z"/>
<path d="M21.0398 86.6667H23.3731V98.3333H21.0398V86.6667ZM21.0398 77.3333H23.3731V82H21.0398V77.3333Z"/>
<path d="M28.4038 86.6667H33.0704V82H35.4038V86.6667H42.4038V89H35.4038V96H33.0704V89H28.4038V86.6667ZM35.4038 96H42.4038V98.3333H35.4038V96Z"/>
<path d="M47.4436 86.6667H52.1102V82H54.4436V86.6667H61.4436V89H54.4436V96H52.1102V89H47.4436V86.6667ZM54.4436 96H61.4436V98.3333H54.4436V96Z"/>
<path d="M66.4833 86.6667H68.8167V96H66.4833V86.6667ZM68.8167 96H78.15V98.3333H68.8167V96ZM68.8167 84.3333H78.15V86.6667H68.8167V84.3333ZM78.15 86.6667H80.4833V96H78.15V86.6667Z"/>
<path d="M85.5231 75H87.8565V96H85.5231V75ZM87.8565 96H99.5231V98.3333H87.8565V96Z"/>
<path d="M104.563 86.6667H106.896V91.3333H116.23V93.6667H106.896V96H104.563V86.6667ZM106.896 96H118.563V98.3333H106.896V96ZM106.896 84.3333H116.23V86.6667H106.896V84.3333ZM116.23 86.6667H118.563V91.3333H116.23V86.6667Z"/>
<path d="M123.603 86.6667H128.269V82H130.603V86.6667H137.603V89H130.603V96H128.269V89H123.603V86.6667ZM130.603 96H137.603V98.3333H130.603V96Z"/>
<path d="M142.642 86.6667H147.309V82H149.642V86.6667H156.642V89H149.642V96H147.309V89H142.642V86.6667ZM149.642 96H156.642V98.3333H149.642V96Z"/>
<path d="M161.682 86.6667H164.016V96H161.682V86.6667ZM164.016 96H173.349V98.3333H164.016V96ZM164.016 84.3333H173.349V86.6667H164.016V84.3333ZM173.349 86.6667H175.682V96H173.349V86.6667Z"/>
</mask>
<path d="M2 75H11.3333V77.3333H4.33333V96H2V75ZM4.33333 96H11.3333V98.3333H4.33333V96ZM11.3333 93.6667H13.6667V96H11.3333V93.6667ZM11.3333 77.3333H13.6667V79.6667H11.3333V77.3333ZM13.6667 79.6667H16V93.6667H13.6667V79.6667Z" fill="#FFDDB5"/>
<path d="M21.0398 86.6667H23.3731V98.3333H21.0398V86.6667ZM21.0398 77.3333H23.3731V82H21.0398V77.3333Z" fill="#FFDDB5"/>
<path d="M28.4038 86.6667H33.0704V82H35.4038V86.6667H42.4038V89H35.4038V96H33.0704V89H28.4038V86.6667ZM35.4038 96H42.4038V98.3333H35.4038V96Z" fill="#FFDDB5"/>
<path d="M47.4436 86.6667H52.1102V82H54.4436V86.6667H61.4436V89H54.4436V96H52.1102V89H47.4436V86.6667ZM54.4436 96H61.4436V98.3333H54.4436V96Z" fill="#FFDDB5"/>
<path d="M66.4833 86.6667H68.8167V96H66.4833V86.6667ZM68.8167 96H78.15V98.3333H68.8167V96ZM68.8167 84.3333H78.15V86.6667H68.8167V84.3333ZM78.15 86.6667H80.4833V96H78.15V86.6667Z" fill="#FFDDB5"/>
<path d="M85.5231 75H87.8565V96H85.5231V75ZM87.8565 96H99.5231V98.3333H87.8565V96Z" fill="#FFDDB5"/>
<path d="M104.563 86.6667H106.896V91.3333H116.23V93.6667H106.896V96H104.563V86.6667ZM106.896 96H118.563V98.3333H106.896V96ZM106.896 84.3333H116.23V86.6667H106.896V84.3333ZM116.23 86.6667H118.563V91.3333H116.23V86.6667Z" fill="#FFDDB5"/>
<path d="M123.603 86.6667H128.269V82H130.603V86.6667H137.603V89H130.603V96H128.269V89H123.603V86.6667ZM130.603 96H137.603V98.3333H130.603V96Z" fill="#FFDDB5"/>
<path d="M142.642 86.6667H147.309V82H149.642V86.6667H156.642V89H149.642V96H147.309V89H142.642V86.6667ZM149.642 96H156.642V98.3333H149.642V96Z" fill="#FFDDB5"/>
<path d="M161.682 86.6667H164.016V96H161.682V86.6667ZM164.016 96H173.349V98.3333H164.016V96ZM164.016 84.3333H173.349V86.6667H164.016V84.3333ZM173.349 86.6667H175.682V96H173.349V86.6667Z" fill="#FFDDB5"/>
<path d="M2 75V73.5H0.5V75H2ZM11.3333 75H12.8333V73.5H11.3333V75ZM4.33333 77.3333V75.8333H2.83333V77.3333H4.33333ZM2 96H0.5V97.5H2V96ZM11.3333 98.3333V99.8333H12.8333V98.3333H11.3333ZM4.33333 98.3333H2.83333V99.8333H4.33333V98.3333ZM11.3333 93.6667V92.1667H9.83333V93.6667H11.3333ZM13.6667 96V97.5H15.1667V96H13.6667ZM13.6667 77.3333H15.1667V75.8333H13.6667V77.3333ZM11.3333 79.6667H9.83333V81.1667H11.3333V79.6667ZM16 79.6667H17.5V78.1667H16V79.6667ZM16 93.6667V95.1667H17.5V93.6667H16ZM21.0398 86.6667V85.1667H19.5398V86.6667H21.0398ZM23.3731 86.6667H24.8731V85.1667H23.3731V86.6667ZM23.3731 98.3333V99.8333H24.8731V98.3333H23.3731ZM21.0398 98.3333H19.5398V99.8333H21.0398V98.3333ZM21.0398 77.3333V75.8333H19.5398V77.3333H21.0398ZM23.3731 77.3333H24.8731V75.8333H23.3731V77.3333ZM23.3731 82V83.5H24.8731V82H23.3731ZM21.0398 82H19.5398V83.5H21.0398V82ZM28.4038 86.6667V85.1667H26.9038V86.6667H28.4038ZM33.0704 86.6667V88.1667H34.5704V86.6667H33.0704ZM33.0704 82V80.5H31.5704V82H33.0704ZM35.4038 82H36.9038V80.5H35.4038V82ZM35.4038 86.6667H33.9038V88.1667H35.4038V86.6667ZM42.4038 86.6667H43.9038V85.1667H42.4038V86.6667ZM42.4038 89V90.5H43.9038V89H42.4038ZM35.4038 89V87.5H33.9038V89H35.4038ZM33.0704 96H31.5704V97.5H33.0704V96ZM33.0704 89H34.5704V87.5H33.0704V89ZM28.4038 89H26.9038V90.5H28.4038V89ZM42.4038 96H43.9038V94.5H42.4038V96ZM42.4038 98.3333V99.8333H43.9038V98.3333H42.4038ZM35.4038 98.3333H33.9038V99.8333H35.4038V98.3333ZM47.4436 86.6667V85.1667H45.9436V86.6667H47.4436ZM52.1102 86.6667V88.1667H53.6102V86.6667H52.1102ZM52.1102 82V80.5H50.6102V82H52.1102ZM54.4436 82H55.9436V80.5H54.4436V82ZM54.4436 86.6667H52.9436V88.1667H54.4436V86.6667ZM61.4436 86.6667H62.9436V85.1667H61.4436V86.6667ZM61.4436 89V90.5H62.9436V89H61.4436ZM54.4436 89V87.5H52.9436V89H54.4436ZM52.1102 96H50.6102V97.5H52.1102V96ZM52.1102 89H53.6102V87.5H52.1102V89ZM47.4436 89H45.9436V90.5H47.4436V89ZM61.4436 96H62.9436V94.5H61.4436V96ZM61.4436 98.3333V99.8333H62.9436V98.3333H61.4436ZM54.4436 98.3333H52.9436V99.8333H54.4436V98.3333ZM66.4833 86.6667V85.1667H64.9833V86.6667H66.4833ZM66.4833 96H64.9833V97.5H66.4833V96ZM78.15 98.3333V99.8333H79.65V98.3333H78.15ZM68.8167 98.3333H67.3167V99.8333H68.8167V98.3333ZM68.8167 84.3333V82.8333H67.3167V84.3333H68.8167ZM78.15 84.3333H79.65V82.8333H78.15V84.3333ZM80.4833 86.6667H81.9833V85.1667H80.4833V86.6667ZM80.4833 96V97.5H81.9833V96H80.4833ZM85.5231 75V73.5H84.0231V75H85.5231ZM87.8565 75H89.3565V73.5H87.8565V75ZM85.5231 96H84.0231V97.5H85.5231V96ZM99.5231 96H101.023V94.5H99.5231V96ZM99.5231 98.3333V99.8333H101.023V98.3333H99.5231ZM87.8565 98.3333H86.3565V99.8333H87.8565V98.3333ZM104.563 86.6667V85.1667H103.063V86.6667H104.563ZM106.896 91.3333H105.396V92.8333H106.896V91.3333ZM116.23 93.6667V95.1667H117.73V93.6667H116.23ZM106.896 93.6667V92.1667H105.396V93.6667H106.896ZM104.563 96H103.063V97.5H104.563V96ZM118.563 96H120.063V94.5H118.563V96ZM118.563 98.3333V99.8333H120.063V98.3333H118.563ZM106.896 98.3333H105.396V99.8333H106.896V98.3333ZM106.896 84.3333V82.8333H105.396V84.3333H106.896ZM116.23 84.3333H117.73V82.8333H116.23V84.3333ZM118.563 86.6667H120.063V85.1667H118.563V86.6667ZM118.563 91.3333V92.8333H120.063V91.3333H118.563ZM123.603 86.6667V85.1667H122.103V86.6667H123.603ZM128.269 86.6667V88.1667H129.769V86.6667H128.269ZM128.269 82V80.5H126.769V82H128.269ZM130.603 82H132.103V80.5H130.603V82ZM130.603 86.6667H129.103V88.1667H130.603V86.6667ZM137.603 86.6667H139.103V85.1667H137.603V86.6667ZM137.603 89V90.5H139.103V89H137.603ZM130.603 89V87.5H129.103V89H130.603ZM128.269 96H126.769V97.5H128.269V96ZM128.269 89H129.769V87.5H128.269V89ZM123.603 89H122.103V90.5H123.603V89ZM137.603 96H139.103V94.5H137.603V96ZM137.603 98.3333V99.8333H139.103V98.3333H137.603ZM130.603 98.3333H129.103V99.8333H130.603V98.3333ZM142.642 86.6667V85.1667H141.142V86.6667H142.642ZM147.309 86.6667V88.1667H148.809V86.6667H147.309ZM147.309 82V80.5H145.809V82H147.309ZM149.642 82H151.142V80.5H149.642V82ZM149.642 86.6667H148.142V88.1667H149.642V86.6667ZM156.642 86.6667H158.142V85.1667H156.642V86.6667ZM156.642 89V90.5H158.142V89H156.642ZM149.642 89V87.5H148.142V89H149.642ZM147.309 96H145.809V97.5H147.309V96ZM147.309 89H148.809V87.5H147.309V89ZM142.642 89H141.142V90.5H142.642V89ZM156.642 96H158.142V94.5H156.642V96ZM156.642 98.3333V99.8333H158.142V98.3333H156.642ZM149.642 98.3333H148.142V99.8333H149.642V98.3333ZM161.682 86.6667V85.1667H160.182V86.6667H161.682ZM161.682 96H160.182V97.5H161.682V96ZM173.349 98.3333V99.8333H174.849V98.3333H173.349ZM164.016 98.3333H162.516V99.8333H164.016V98.3333ZM164.016 84.3333V82.8333H162.516V84.3333H164.016ZM173.349 84.3333H174.849V82.8333H173.349V84.3333ZM175.682 86.6667H177.182V85.1667H175.682V86.6667ZM175.682 96V97.5H177.182V96H175.682ZM2 76.5H11.3333V73.5H2V76.5ZM9.83333 75V77.3333H12.8333V75H9.83333ZM11.3333 75.8333H4.33333V78.8333H11.3333V75.8333ZM2.83333 77.3333V96H5.83333V77.3333H2.83333ZM4.33333 94.5H2V97.5H4.33333V94.5ZM3.5 96V75H0.5V96H3.5ZM4.33333 97.5H11.3333V94.5H4.33333V97.5ZM9.83333 96V98.3333H12.8333V96H9.83333ZM11.3333 96.8333H4.33333V99.8333H11.3333V96.8333ZM5.83333 98.3333V96H2.83333V98.3333H5.83333ZM11.3333 95.1667H13.6667V92.1667H11.3333V95.1667ZM12.1667 93.6667V96H15.1667V93.6667H12.1667ZM13.6667 94.5H11.3333V97.5H13.6667V94.5ZM12.8333 96V93.6667H9.83333V96H12.8333ZM11.3333 78.8333H13.6667V75.8333H11.3333V78.8333ZM12.1667 77.3333V79.6667H15.1667V77.3333H12.1667ZM13.6667 78.1667H11.3333V81.1667H13.6667V78.1667ZM12.8333 79.6667V77.3333H9.83333V79.6667H12.8333ZM13.6667 81.1667H16V78.1667H13.6667V81.1667ZM14.5 79.6667V93.6667H17.5V79.6667H14.5ZM16 92.1667H13.6667V95.1667H16V92.1667ZM15.1667 93.6667V79.6667H12.1667V93.6667H15.1667ZM21.0398 88.1667H23.3731V85.1667H21.0398V88.1667ZM21.8731 86.6667V98.3333H24.8731V86.6667H21.8731ZM23.3731 96.8333H21.0398V99.8333H23.3731V96.8333ZM22.5398 98.3333V86.6667H19.5398V98.3333H22.5398ZM21.0398 78.8333H23.3731V75.8333H21.0398V78.8333ZM21.8731 77.3333V82H24.8731V77.3333H21.8731ZM23.3731 80.5H21.0398V83.5H23.3731V80.5ZM22.5398 82V77.3333H19.5398V82H22.5398ZM28.4038 88.1667H33.0704V85.1667H28.4038V88.1667ZM34.5704 86.6667V82H31.5704V86.6667H34.5704ZM33.0704 83.5H35.4038V80.5H33.0704V83.5ZM33.9038 82V86.6667H36.9038V82H33.9038ZM35.4038 88.1667H42.4038V85.1667H35.4038V88.1667ZM40.9038 86.6667V89H43.9038V86.6667H40.9038ZM42.4038 87.5H35.4038V90.5H42.4038V87.5ZM33.9038 89V96H36.9038V89H33.9038ZM35.4038 94.5H33.0704V97.5H35.4038V94.5ZM34.5704 96V89H31.5704V96H34.5704ZM33.0704 87.5H28.4038V90.5H33.0704V87.5ZM29.9038 89V86.6667H26.9038V89H29.9038ZM35.4038 97.5H42.4038V94.5H35.4038V97.5ZM40.9038 96V98.3333H43.9038V96H40.9038ZM42.4038 96.8333H35.4038V99.8333H42.4038V96.8333ZM36.9038 98.3333V96H33.9038V98.3333H36.9038ZM47.4436 88.1667H52.1102V85.1667H47.4436V88.1667ZM53.6102 86.6667V82H50.6102V86.6667H53.6102ZM52.1102 83.5H54.4436V80.5H52.1102V83.5ZM52.9436 82V86.6667H55.9436V82H52.9436ZM54.4436 88.1667H61.4436V85.1667H54.4436V88.1667ZM59.9436 86.6667V89H62.9436V86.6667H59.9436ZM61.4436 87.5H54.4436V90.5H61.4436V87.5ZM52.9436 89V96H55.9436V89H52.9436ZM54.4436 94.5H52.1102V97.5H54.4436V94.5ZM53.6102 96V89H50.6102V96H53.6102ZM52.1102 87.5H47.4436V90.5H52.1102V87.5ZM48.9436 89V86.6667H45.9436V89H48.9436ZM54.4436 97.5H61.4436V94.5H54.4436V97.5ZM59.9436 96V98.3333H62.9436V96H59.9436ZM61.4436 96.8333H54.4436V99.8333H61.4436V96.8333ZM55.9436 98.3333V96H52.9436V98.3333H55.9436ZM66.4833 88.1667H68.8167V85.1667H66.4833V88.1667ZM67.3167 86.6667V96H70.3167V86.6667H67.3167ZM68.8167 94.5H66.4833V97.5H68.8167V94.5ZM67.9833 96V86.6667H64.9833V96H67.9833ZM68.8167 97.5H78.15V94.5H68.8167V97.5ZM76.65 96V98.3333H79.65V96H76.65ZM78.15 96.8333H68.8167V99.8333H78.15V96.8333ZM70.3167 98.3333V96H67.3167V98.3333H70.3167ZM68.8167 85.8333H78.15V82.8333H68.8167V85.8333ZM76.65 84.3333V86.6667H79.65V84.3333H76.65ZM78.15 85.1667H68.8167V88.1667H78.15V85.1667ZM70.3167 86.6667V84.3333H67.3167V86.6667H70.3167ZM78.15 88.1667H80.4833V85.1667H78.15V88.1667ZM78.9833 86.6667V96H81.9833V86.6667H78.9833ZM80.4833 94.5H78.15V97.5H80.4833V94.5ZM79.65 96V86.6667H76.65V96H79.65ZM85.5231 76.5H87.8565V73.5H85.5231V76.5ZM86.3565 75V96H89.3565V75H86.3565ZM87.8565 94.5H85.5231V97.5H87.8565V94.5ZM87.0231 96V75H84.0231V96H87.0231ZM87.8565 97.5H99.5231V94.5H87.8565V97.5ZM98.0231 96V98.3333H101.023V96H98.0231ZM99.5231 96.8333H87.8565V99.8333H99.5231V96.8333ZM89.3565 98.3333V96H86.3565V98.3333H89.3565ZM104.563 88.1667H106.896V85.1667H104.563V88.1667ZM105.396 86.6667V91.3333H108.396V86.6667H105.396ZM106.896 92.8333H116.23V89.8333H106.896V92.8333ZM114.73 91.3333V93.6667H117.73V91.3333H114.73ZM116.23 92.1667H106.896V95.1667H116.23V92.1667ZM105.396 93.6667V96H108.396V93.6667H105.396ZM106.896 94.5H104.563V97.5H106.896V94.5ZM106.063 96V86.6667H103.063V96H106.063ZM106.896 97.5H118.563V94.5H106.896V97.5ZM117.063 96V98.3333H120.063V96H117.063ZM118.563 96.8333H106.896V99.8333H118.563V96.8333ZM108.396 98.3333V96H105.396V98.3333H108.396ZM106.896 85.8333H116.23V82.8333H106.896V85.8333ZM114.73 84.3333V86.6667H117.73V84.3333H114.73ZM116.23 85.1667H106.896V88.1667H116.23V85.1667ZM108.396 86.6667V84.3333H105.396V86.6667H108.396ZM116.23 88.1667H118.563V85.1667H116.23V88.1667ZM117.063 86.6667V91.3333H120.063V86.6667H117.063ZM118.563 89.8333H116.23V92.8333H118.563V89.8333ZM117.73 91.3333V86.6667H114.73V91.3333H117.73ZM123.603 88.1667H128.269V85.1667H123.603V88.1667ZM129.769 86.6667V82H126.769V86.6667H129.769ZM128.269 83.5H130.603V80.5H128.269V83.5ZM129.103 82V86.6667H132.103V82H129.103ZM130.603 88.1667H137.603V85.1667H130.603V88.1667ZM136.103 86.6667V89H139.103V86.6667H136.103ZM137.603 87.5H130.603V90.5H137.603V87.5ZM129.103 89V96H132.103V89H129.103ZM130.603 94.5H128.269V97.5H130.603V94.5ZM129.769 96V89H126.769V96H129.769ZM128.269 87.5H123.603V90.5H128.269V87.5ZM125.103 89V86.6667H122.103V89H125.103ZM130.603 97.5H137.603V94.5H130.603V97.5ZM136.103 96V98.3333H139.103V96H136.103ZM137.603 96.8333H130.603V99.8333H137.603V96.8333ZM132.103 98.3333V96H129.103V98.3333H132.103ZM142.642 88.1667H147.309V85.1667H142.642V88.1667ZM148.809 86.6667V82H145.809V86.6667H148.809ZM147.309 83.5H149.642V80.5H147.309V83.5ZM148.142 82V86.6667H151.142V82H148.142ZM149.642 88.1667H156.642V85.1667H149.642V88.1667ZM155.142 86.6667V89H158.142V86.6667H155.142ZM156.642 87.5H149.642V90.5H156.642V87.5ZM148.142 89V96H151.142V89H148.142ZM149.642 94.5H147.309V97.5H149.642V94.5ZM148.809 96V89H145.809V96H148.809ZM147.309 87.5H142.642V90.5H147.309V87.5ZM144.142 89V86.6667H141.142V89H144.142ZM149.642 97.5H156.642V94.5H149.642V97.5ZM155.142 96V98.3333H158.142V96H155.142ZM156.642 96.8333H149.642V99.8333H156.642V96.8333ZM151.142 98.3333V96H148.142V98.3333H151.142ZM161.682 88.1667H164.016V85.1667H161.682V88.1667ZM162.516 86.6667V96H165.516V86.6667H162.516ZM164.016 94.5H161.682V97.5H164.016V94.5ZM163.182 96V86.6667H160.182V96H163.182ZM164.016 97.5H173.349V94.5H164.016V97.5ZM171.849 96V98.3333H174.849V96H171.849ZM173.349 96.8333H164.016V99.8333H173.349V96.8333ZM165.516 98.3333V96H162.516V98.3333H165.516ZM164.016 85.8333H173.349V82.8333H164.016V85.8333ZM171.849 84.3333V86.6667H174.849V84.3333H171.849ZM173.349 85.1667H164.016V88.1667H173.349V85.1667ZM165.516 86.6667V84.3333H162.516V86.6667H165.516ZM173.349 88.1667H175.682V85.1667H173.349V88.1667ZM174.182 86.6667V96H177.182V86.6667H174.182ZM175.682 94.5H173.349V97.5H175.682V94.5ZM174.849 96V86.6667H171.849V96H174.849Z" fill="#373341" mask="url(#path-8-outside-3_82_1269)"/>
<defs>
<filter id="filter0_d_82_1269" x="60.3411" y="0" width="58.5" height="52.5" filterUnits="userSpaceOnUse" color-interpolation-filters="sRGB">
<feFlood flood-opacity="0" result="BackgroundImageFix"/>
<feColorMatrix in="SourceAlpha" type="matrix" values="0 0 0 0 0 0 0 0 0 0 0 0 0 0 0 0 0 0 127 0" result="hardAlpha"/>
<feOffset dx="1.5" dy="1.5"/>
<feComposite in2="hardAlpha" operator="out"/>
<feColorMatrix type="matrix" values="0 0 0 0 0.215686 0 0 0 0 0.2 0 0 0 0 0.254902 0 0 0 1 0"/>
<feBlend mode="normal" in2="BackgroundImageFix" result="effect1_dropShadow_82_1269"/>
<feBlend mode="normal" in="SourceGraphic" in2="effect1_dropShadow_82_1269" result="shape"/>
</filter>
<filter id="filter1_d_82_1269" x="60.3411" y="0" width="58.5" height="52.5" filterUnits="userSpaceOnUse" color-interpolation-filters="sRGB">
<feFlood flood-opacity="0" result="BackgroundImageFix"/>
<feColorMatrix in="SourceAlpha" type="matrix" values="0 0 0 0 0 0 0 0 0 0 0 0 0 0 0 0 0 0 127 0" result="hardAlpha"/>
<feOffset dx="1.5" dy="1.5"/>
<feComposite in2="hardAlpha" operator="out"/>
<feColorMatrix type="matrix" values="0 0 0 0 0.215686 0 0 0 0 0.2 0 0 0 0 0.254902 0 0 0 1 0"/>
<feBlend mode="normal" in2="BackgroundImageFix" result="effect1_dropShadow_82_1269"/>
<feBlend mode="normal" in="SourceGraphic" in2="effect1_dropShadow_82_1269" result="shape"/>
</filter>
<filter id="filter2_i_82_1269" x="63.3411" y="15" width="51" height="33" filterUnits="userSpaceOnUse" color-interpolation-filters="sRGB">
<feFlood flood-opacity="0" result="BackgroundImageFix"/>
<feBlend mode="normal" in="SourceGraphic" in2="BackgroundImageFix" result="shape"/>
<feColorMatrix in="SourceAlpha" type="matrix" values="0 0 0 0 0 0 0 0 0 0 0 0 0 0 0 0 0 0 127 0" result="hardAlpha"/>
<feOffset dx="6" dy="6"/>
<feComposite in2="hardAlpha" operator="arithmetic" k2="-1" k3="1"/>
<feColorMatrix type="matrix" values="0 0 0 0 1 0 0 0 0 1 0 0 0 0 1 0 0 0 0.25 0"/>
<feBlend mode="normal" in2="shape" result="effect1_innerShadow_82_1269"/>
</filter>
</defs>
</svg>
