<svg width="20" height="22" viewBox="0 0 20 22" fill="none" xmlns="http://www.w3.org/2000/svg">
<g clip-path="url(#clip0_562_302)">
<path d="M13.084 3.42383C12.3643 4.29395 11.1611 4.93848 10.2051 4.93848C10.0869 4.93848 9.97949 4.91699 9.91504 4.90625C9.9043 4.85254 9.87207 4.69141 9.87207 4.51953C9.87207 3.42383 10.4307 2.32812 11.043 1.64062C11.8057 0.738281 13.0947 0.0722656 14.1689 0.0292969C14.1904 0.147461 14.2012 0.297852 14.2012 0.448242C14.2012 1.54395 13.7393 2.62891 13.084 3.42383ZM13.8359 5.16406C14.4375 5.16406 16.6182 5.22852 18.0469 7.28027C17.918 7.37695 15.7588 8.60156 15.7588 11.3301C15.7588 14.4775 18.5088 15.6055 18.5947 15.627C18.584 15.7021 18.1543 17.1523 17.1445 18.6455C16.2314 19.9453 15.2754 21.2666 13.8359 21.2666C12.3857 21.2666 12.0098 20.418 10.3555 20.418C8.72266 20.418 8.14258 21.2881 6.83203 21.2881C5.5 21.2881 4.57617 20.0742 3.52344 18.5918C2.28809 16.8408 1.2998 14.123 1.2998 11.5449C1.2998 7.41992 3.98535 5.22852 6.63867 5.22852C8.03516 5.22852 9.19531 6.1416 10.0869 6.1416C10.9248 6.1416 12.2354 5.16406 13.8359 5.16406Z" fill="black"/>
</g>
<defs>
<clipPath id="clip0_562_302">
<rect width="20" height="22" fill="white"/>
</clipPath>
</defs>
</svg>
