<svg width="50" height="50" viewBox="0 0 50 50" fill="none" xmlns="http://www.w3.org/2000/svg">
<rect y="0.192322" width="50" height="50" rx="5" fill="#DBDBE3"/>
<path d="M33 28.478C33.9093 28.478 34.7814 28.8393 35.4244 29.4822C36.0673 30.1252 36.4286 30.9973 36.4286 31.9066V32.7237C36.4286 36.8117 31.6171 39.9066 25 39.9066C18.3829 39.9066 13.5714 36.9729 13.5714 32.7237V31.9066C13.5714 30.9973 13.9326 30.1252 14.5756 29.4822C15.2186 28.8393 16.0907 28.478 17 28.478H33ZM25 12.478C25.9005 12.478 26.7922 12.6554 27.6241 13C28.4561 13.3446 29.212 13.8497 29.8487 14.4864C30.4855 15.1232 30.9906 15.8791 31.3352 16.7111C31.6798 17.543 31.8571 18.4347 31.8571 19.3352C31.8571 20.2357 31.6798 21.1273 31.3352 21.9593C30.9906 22.7912 30.4855 23.5472 29.8487 24.1839C29.212 24.8206 28.4561 25.3257 27.6241 25.6703C26.7922 26.0149 25.9005 26.1923 25 26.1923C23.1814 26.1923 21.4372 25.4699 20.1513 24.1839C18.8653 22.8979 18.1429 21.1538 18.1429 19.3352C18.1429 17.5165 18.8653 15.7724 20.1513 14.4864C21.4372 13.2005 23.1814 12.478 25 12.478Z" fill="#4999BD"/>
</svg>
