<svg width="334" height="178" viewBox="0 0 334 178" fill="none" xmlns="http://www.w3.org/2000/svg">
<mask id="path-1-inside-1_82_1223" fill="white">
<path d="M0 0H334V178H0V0Z"/>
</mask>
<path d="M0 0H334V178H0V0Z" fill="#DBDBE3"/>
<rect x="13.1513" y="26.1513" width="307.698" height="136.697" fill="white"/>
<path d="M312.305 31.3319C312.749 30.5644 313.856 30.5644 314.3 31.3319L318.368 38.3781C318.811 39.1456 318.257 40.105 317.371 40.105H309.234C308.348 40.105 307.794 39.1456 308.237 38.3781L312.305 31.3319Z" fill="#A9A8AE"/>
<rect x="307.605" y="57.4199" width="9.93103" height="72" fill="#DBDBE3"/>
<rect x="305.151" y="26.1513" width="15.6975" height="136.697" stroke="#A9A8AE" stroke-width="2.3025"/>
<path d="M314.533 155.273C314.089 156.041 312.982 156.041 312.539 155.273L308.47 148.227C308.027 147.459 308.581 146.5 309.467 146.5L317.604 146.5C318.49 146.5 319.044 147.459 318.601 148.227L314.533 155.273Z" fill="#A9A8AE"/>
<g filter="url(#filter0_d_82_1223)">
<mask id="path-8-inside-2_82_1223" fill="white">
<path fill-rule="evenodd" clip-rule="evenodd" d="M46.2426 44C45.447 44 44.6839 44.3161 44.1213 44.8787L39 50V95H96V50H66L60.8787 44.8787C60.3161 44.3161 59.553 44 58.7574 44H46.2426Z"/>
</mask>
<path fill-rule="evenodd" clip-rule="evenodd" d="M46.2426 44C45.447 44 44.6839 44.3161 44.1213 44.8787L39 50V95H96V50H66L60.8787 44.8787C60.3161 44.3161 59.553 44 58.7574 44H46.2426Z" fill="white"/>
<path d="M44.1213 44.8787L43.0607 43.818L43.0607 43.818L44.1213 44.8787ZM39 50L37.9393 48.9393C37.658 49.2206 37.5 49.6022 37.5 50H39ZM39 95H37.5C37.5 95.8284 38.1716 96.5 39 96.5V95ZM96 95V96.5C96.8284 96.5 97.5 95.8284 97.5 95H96ZM96 50H97.5C97.5 49.1716 96.8284 48.5 96 48.5V50ZM66 50L64.9393 51.0607C65.2206 51.342 65.6022 51.5 66 51.5V50ZM60.8787 44.8787L59.818 45.9393L59.818 45.9393L60.8787 44.8787ZM45.182 45.9393C45.4633 45.658 45.8448 45.5 46.2426 45.5V42.5C45.0492 42.5 43.9046 42.9741 43.0607 43.818L45.182 45.9393ZM40.0607 51.0607L45.182 45.9393L43.0607 43.818L37.9393 48.9393L40.0607 51.0607ZM40.5 95V50H37.5V95H40.5ZM96 93.5H39V96.5H96V93.5ZM94.5 50V95H97.5V50H94.5ZM66 51.5H96V48.5H66V51.5ZM59.818 45.9393L64.9393 51.0607L67.0607 48.9393L61.9393 43.818L59.818 45.9393ZM58.7574 45.5C59.1552 45.5 59.5367 45.658 59.818 45.9393L61.9393 43.818C61.0954 42.9741 59.9508 42.5 58.7574 42.5V45.5ZM46.2426 45.5H58.7574V42.5H46.2426V45.5Z" fill="#373341" mask="url(#path-8-inside-2_82_1223)"/>
</g>
<g filter="url(#filter1_i_82_1223)">
<rect x="42" y="59" width="51" height="33" fill="#FFDDB5"/>
</g>
<rect x="42.75" y="59.75" width="49.5" height="31.5" stroke="#373341" stroke-width="1.5"/>
<g filter="url(#filter2_d_82_1223)">
<mask id="path-12-inside-3_82_1223" fill="white">
<path fill-rule="evenodd" clip-rule="evenodd" d="M234.243 44C233.447 44 232.684 44.3161 232.121 44.8787L227 50V95H284V50H254L248.879 44.8787C248.316 44.3161 247.553 44 246.757 44H234.243Z"/>
</mask>
<path fill-rule="evenodd" clip-rule="evenodd" d="M234.243 44C233.447 44 232.684 44.3161 232.121 44.8787L227 50V95H284V50H254L248.879 44.8787C248.316 44.3161 247.553 44 246.757 44H234.243Z" fill="white"/>
<path d="M232.121 44.8787L231.061 43.818L231.061 43.818L232.121 44.8787ZM227 50L225.939 48.9393C225.658 49.2206 225.5 49.6022 225.5 50H227ZM227 95H225.5C225.5 95.8284 226.172 96.5 227 96.5V95ZM284 95V96.5C284.828 96.5 285.5 95.8284 285.5 95H284ZM284 50H285.5C285.5 49.1716 284.828 48.5 284 48.5V50ZM254 50L252.939 51.0607C253.221 51.342 253.602 51.5 254 51.5V50ZM248.879 44.8787L247.818 45.9393L247.818 45.9393L248.879 44.8787ZM233.182 45.9393C233.463 45.658 233.845 45.5 234.243 45.5V42.5C233.049 42.5 231.905 42.9741 231.061 43.818L233.182 45.9393ZM228.061 51.0607L233.182 45.9393L231.061 43.818L225.939 48.9393L228.061 51.0607ZM228.5 95V50H225.5V95H228.5ZM284 93.5H227V96.5H284V93.5ZM282.5 50V95H285.5V50H282.5ZM254 51.5H284V48.5H254V51.5ZM247.818 45.9393L252.939 51.0607L255.061 48.9393L249.939 43.818L247.818 45.9393ZM246.757 45.5C247.155 45.5 247.537 45.658 247.818 45.9393L249.939 43.818C249.095 42.9741 247.951 42.5 246.757 42.5V45.5ZM234.243 45.5H246.757V42.5H234.243V45.5Z" fill="#373341" mask="url(#path-12-inside-3_82_1223)"/>
</g>
<g filter="url(#filter3_i_82_1223)">
<rect x="230" y="59" width="51" height="33" fill="#E2A19C"/>
</g>
<rect x="230.75" y="59.75" width="49.5" height="31.5" stroke="#373341" stroke-width="1.5"/>
<rect x="105" y="65" width="20" height="10" rx="2" fill="#4999BD"/>
<rect x="128" y="65" width="20" height="10" rx="2" fill="#4999BD"/>
<rect x="151" y="65" width="20" height="10" rx="2" fill="white"/>
<rect x="174" y="65" width="20" height="10" rx="2" fill="#4999BD"/>
<rect x="197" y="65" width="20" height="10" rx="2" fill="#4999BD"/>
<mask id="path-21-outside-4_82_1223" maskUnits="userSpaceOnUse" x="74.3333" y="113.333" width="178" height="27" fill="black">
<rect fill="white" x="74.3333" y="113.333" width="178" height="27"/>
<path d="M76.3333 115.333H85.6667V117.667H78.6667V136.333H76.3333V115.333ZM78.6667 136.333H85.6667V138.667H78.6667V136.333ZM85.6667 134H88V136.333H85.6667V134ZM85.6667 117.667H88V120H85.6667V117.667ZM88 120H90.3333V134H88V120Z"/>
<path d="M95.3731 127H97.7065V138.667H95.3731V127ZM95.3731 117.667H97.7065V122.333H95.3731V117.667Z"/>
<path d="M102.737 127H107.404V122.333H109.737V127H116.737V129.333H109.737V136.333H107.404V129.333H102.737V127ZM109.737 136.333H116.737V138.667H109.737V136.333Z"/>
<path d="M121.777 127H126.444V122.333H128.777V127H135.777V129.333H128.777V136.333H126.444V129.333H121.777V127ZM128.777 136.333H135.777V138.667H128.777V136.333Z"/>
<path d="M140.817 127H143.15V136.333H140.817V127ZM143.15 136.333H152.483V138.667H143.15V136.333ZM143.15 124.667H152.483V127H143.15V124.667ZM152.483 127H154.817V136.333H152.483V127Z"/>
<path d="M159.856 115.333H162.19V136.333H159.856V115.333ZM162.19 136.333H173.856V138.667H162.19V136.333Z"/>
<path d="M178.896 127H181.23V131.667H190.563V134H181.23V136.333H178.896V127ZM181.23 136.333H192.896V138.667H181.23V136.333ZM181.23 124.667H190.563V127H181.23V124.667ZM190.563 127H192.896V131.667H190.563V127Z"/>
<path d="M197.936 127H202.603V122.333H204.936V127H211.936V129.333H204.936V136.333H202.603V129.333H197.936V127ZM204.936 136.333H211.936V138.667H204.936V136.333Z"/>
<path d="M216.976 127H221.642V122.333H223.976V127H230.976V129.333H223.976V136.333H221.642V129.333H216.976V127ZM223.976 136.333H230.976V138.667H223.976V136.333Z"/>
<path d="M236.016 127H238.349V136.333H236.016V127ZM238.349 136.333H247.682V138.667H238.349V136.333ZM238.349 124.667H247.682V127H238.349V124.667ZM247.682 127H250.016V136.333H247.682V127Z"/>
</mask>
<path d="M76.3333 115.333H85.6667V117.667H78.6667V136.333H76.3333V115.333ZM78.6667 136.333H85.6667V138.667H78.6667V136.333ZM85.6667 134H88V136.333H85.6667V134ZM85.6667 117.667H88V120H85.6667V117.667ZM88 120H90.3333V134H88V120Z" fill="#FFDDB5"/>
<path d="M95.3731 127H97.7065V138.667H95.3731V127ZM95.3731 117.667H97.7065V122.333H95.3731V117.667Z" fill="#FFDDB5"/>
<path d="M102.737 127H107.404V122.333H109.737V127H116.737V129.333H109.737V136.333H107.404V129.333H102.737V127ZM109.737 136.333H116.737V138.667H109.737V136.333Z" fill="#FFDDB5"/>
<path d="M121.777 127H126.444V122.333H128.777V127H135.777V129.333H128.777V136.333H126.444V129.333H121.777V127ZM128.777 136.333H135.777V138.667H128.777V136.333Z" fill="#FFDDB5"/>
<path d="M140.817 127H143.15V136.333H140.817V127ZM143.15 136.333H152.483V138.667H143.15V136.333ZM143.15 124.667H152.483V127H143.15V124.667ZM152.483 127H154.817V136.333H152.483V127Z" fill="#FFDDB5"/>
<path d="M159.856 115.333H162.19V136.333H159.856V115.333ZM162.19 136.333H173.856V138.667H162.19V136.333Z" fill="#FFDDB5"/>
<path d="M178.896 127H181.23V131.667H190.563V134H181.23V136.333H178.896V127ZM181.23 136.333H192.896V138.667H181.23V136.333ZM181.23 124.667H190.563V127H181.23V124.667ZM190.563 127H192.896V131.667H190.563V127Z" fill="#FFDDB5"/>
<path d="M197.936 127H202.603V122.333H204.936V127H211.936V129.333H204.936V136.333H202.603V129.333H197.936V127ZM204.936 136.333H211.936V138.667H204.936V136.333Z" fill="#FFDDB5"/>
<path d="M216.976 127H221.642V122.333H223.976V127H230.976V129.333H223.976V136.333H221.642V129.333H216.976V127ZM223.976 136.333H230.976V138.667H223.976V136.333Z" fill="#FFDDB5"/>
<path d="M236.016 127H238.349V136.333H236.016V127ZM238.349 136.333H247.682V138.667H238.349V136.333ZM238.349 124.667H247.682V127H238.349V124.667ZM247.682 127H250.016V136.333H247.682V127Z" fill="#FFDDB5"/>
<path d="M76.3333 115.333V113.833H74.8333V115.333H76.3333ZM85.6667 115.333H87.1667V113.833H85.6667V115.333ZM78.6667 117.667V116.167H77.1667V117.667H78.6667ZM76.3333 136.333H74.8333V137.833H76.3333V136.333ZM85.6667 138.667V140.167H87.1667V138.667H85.6667ZM78.6667 138.667H77.1667V140.167H78.6667V138.667ZM85.6667 134V132.5H84.1667V134H85.6667ZM88 136.333V137.833H89.5V136.333H88ZM88 117.667H89.5V116.167H88V117.667ZM85.6667 120H84.1667V121.5H85.6667V120ZM90.3333 120H91.8333V118.5H90.3333V120ZM90.3333 134V135.5H91.8333V134H90.3333ZM95.3731 127V125.5H93.8731V127H95.3731ZM97.7065 127H99.2065V125.5H97.7065V127ZM97.7065 138.667V140.167H99.2065V138.667H97.7065ZM95.3731 138.667H93.8731V140.167H95.3731V138.667ZM95.3731 117.667V116.167H93.8731V117.667H95.3731ZM97.7065 117.667H99.2065V116.167H97.7065V117.667ZM97.7065 122.333V123.833H99.2065V122.333H97.7065ZM95.3731 122.333H93.8731V123.833H95.3731V122.333ZM102.737 127V125.5H101.237V127H102.737ZM107.404 127V128.5H108.904V127H107.404ZM107.404 122.333V120.833H105.904V122.333H107.404ZM109.737 122.333H111.237V120.833H109.737V122.333ZM109.737 127H108.237V128.5H109.737V127ZM116.737 127H118.237V125.5H116.737V127ZM116.737 129.333V130.833H118.237V129.333H116.737ZM109.737 129.333V127.833H108.237V129.333H109.737ZM107.404 136.333H105.904V137.833H107.404V136.333ZM107.404 129.333H108.904V127.833H107.404V129.333ZM102.737 129.333H101.237V130.833H102.737V129.333ZM116.737 136.333H118.237V134.833H116.737V136.333ZM116.737 138.667V140.167H118.237V138.667H116.737ZM109.737 138.667H108.237V140.167H109.737V138.667ZM121.777 127V125.5H120.277V127H121.777ZM126.444 127V128.5H127.944V127H126.444ZM126.444 122.333V120.833H124.944V122.333H126.444ZM128.777 122.333H130.277V120.833H128.777V122.333ZM128.777 127H127.277V128.5H128.777V127ZM135.777 127H137.277V125.5H135.777V127ZM135.777 129.333V130.833H137.277V129.333H135.777ZM128.777 129.333V127.833H127.277V129.333H128.777ZM126.444 136.333H124.944V137.833H126.444V136.333ZM126.444 129.333H127.944V127.833H126.444V129.333ZM121.777 129.333H120.277V130.833H121.777V129.333ZM135.777 136.333H137.277V134.833H135.777V136.333ZM135.777 138.667V140.167H137.277V138.667H135.777ZM128.777 138.667H127.277V140.167H128.777V138.667ZM140.817 127V125.5H139.317V127H140.817ZM140.817 136.333H139.317V137.833H140.817V136.333ZM152.483 138.667V140.167H153.983V138.667H152.483ZM143.15 138.667H141.65V140.167H143.15V138.667ZM143.15 124.667V123.167H141.65V124.667H143.15ZM152.483 124.667H153.983V123.167H152.483V124.667ZM154.817 127H156.317V125.5H154.817V127ZM154.817 136.333V137.833H156.317V136.333H154.817ZM159.856 115.333V113.833H158.356V115.333H159.856ZM162.19 115.333H163.69V113.833H162.19V115.333ZM159.856 136.333H158.356V137.833H159.856V136.333ZM173.856 136.333H175.356V134.833H173.856V136.333ZM173.856 138.667V140.167H175.356V138.667H173.856ZM162.19 138.667H160.69V140.167H162.19V138.667ZM178.896 127V125.5H177.396V127H178.896ZM181.23 131.667H179.73V133.167H181.23V131.667ZM190.563 134V135.5H192.063V134H190.563ZM181.23 134V132.5H179.73V134H181.23ZM178.896 136.333H177.396V137.833H178.896V136.333ZM192.896 136.333H194.396V134.833H192.896V136.333ZM192.896 138.667V140.167H194.396V138.667H192.896ZM181.23 138.667H179.73V140.167H181.23V138.667ZM181.23 124.667V123.167H179.73V124.667H181.23ZM190.563 124.667H192.063V123.167H190.563V124.667ZM192.896 127H194.396V125.5H192.896V127ZM192.896 131.667V133.167H194.396V131.667H192.896ZM197.936 127V125.5H196.436V127H197.936ZM202.603 127V128.5H204.103V127H202.603ZM202.603 122.333V120.833H201.103V122.333H202.603ZM204.936 122.333H206.436V120.833H204.936V122.333ZM204.936 127H203.436V128.5H204.936V127ZM211.936 127H213.436V125.5H211.936V127ZM211.936 129.333V130.833H213.436V129.333H211.936ZM204.936 129.333V127.833H203.436V129.333H204.936ZM202.603 136.333H201.103V137.833H202.603V136.333ZM202.603 129.333H204.103V127.833H202.603V129.333ZM197.936 129.333H196.436V130.833H197.936V129.333ZM211.936 136.333H213.436V134.833H211.936V136.333ZM211.936 138.667V140.167H213.436V138.667H211.936ZM204.936 138.667H203.436V140.167H204.936V138.667ZM216.976 127V125.5H215.476V127H216.976ZM221.642 127V128.5H223.142V127H221.642ZM221.642 122.333V120.833H220.142V122.333H221.642ZM223.976 122.333H225.476V120.833H223.976V122.333ZM223.976 127H222.476V128.5H223.976V127ZM230.976 127H232.476V125.5H230.976V127ZM230.976 129.333V130.833H232.476V129.333H230.976ZM223.976 129.333V127.833H222.476V129.333H223.976ZM221.642 136.333H220.142V137.833H221.642V136.333ZM221.642 129.333H223.142V127.833H221.642V129.333ZM216.976 129.333H215.476V130.833H216.976V129.333ZM230.976 136.333H232.476V134.833H230.976V136.333ZM230.976 138.667V140.167H232.476V138.667H230.976ZM223.976 138.667H222.476V140.167H223.976V138.667ZM236.016 127V125.5H234.516V127H236.016ZM236.016 136.333H234.516V137.833H236.016V136.333ZM247.682 138.667V140.167H249.182V138.667H247.682ZM238.349 138.667H236.849V140.167H238.349V138.667ZM238.349 124.667V123.167H236.849V124.667H238.349ZM247.682 124.667H249.182V123.167H247.682V124.667ZM250.016 127H251.516V125.5H250.016V127ZM250.016 136.333V137.833H251.516V136.333H250.016ZM76.3333 116.833H85.6667V113.833H76.3333V116.833ZM84.1667 115.333V117.667H87.1667V115.333H84.1667ZM85.6667 116.167H78.6667V119.167H85.6667V116.167ZM77.1667 117.667V136.333H80.1667V117.667H77.1667ZM78.6667 134.833H76.3333V137.833H78.6667V134.833ZM77.8333 136.333V115.333H74.8333V136.333H77.8333ZM78.6667 137.833H85.6667V134.833H78.6667V137.833ZM84.1667 136.333V138.667H87.1667V136.333H84.1667ZM85.6667 137.167H78.6667V140.167H85.6667V137.167ZM80.1667 138.667V136.333H77.1667V138.667H80.1667ZM85.6667 135.5H88V132.5H85.6667V135.5ZM86.5 134V136.333H89.5V134H86.5ZM88 134.833H85.6667V137.833H88V134.833ZM87.1667 136.333V134H84.1667V136.333H87.1667ZM85.6667 119.167H88V116.167H85.6667V119.167ZM86.5 117.667V120H89.5V117.667H86.5ZM88 118.5H85.6667V121.5H88V118.5ZM87.1667 120V117.667H84.1667V120H87.1667ZM88 121.5H90.3333V118.5H88V121.5ZM88.8333 120V134H91.8333V120H88.8333ZM90.3333 132.5H88V135.5H90.3333V132.5ZM89.5 134V120H86.5V134H89.5ZM95.3731 128.5H97.7065V125.5H95.3731V128.5ZM96.2065 127V138.667H99.2065V127H96.2065ZM97.7065 137.167H95.3731V140.167H97.7065V137.167ZM96.8731 138.667V127H93.8731V138.667H96.8731ZM95.3731 119.167H97.7065V116.167H95.3731V119.167ZM96.2065 117.667V122.333H99.2065V117.667H96.2065ZM97.7065 120.833H95.3731V123.833H97.7065V120.833ZM96.8731 122.333V117.667H93.8731V122.333H96.8731ZM102.737 128.5H107.404V125.5H102.737V128.5ZM108.904 127V122.333H105.904V127H108.904ZM107.404 123.833H109.737V120.833H107.404V123.833ZM108.237 122.333V127H111.237V122.333H108.237ZM109.737 128.5H116.737V125.5H109.737V128.5ZM115.237 127V129.333H118.237V127H115.237ZM116.737 127.833H109.737V130.833H116.737V127.833ZM108.237 129.333V136.333H111.237V129.333H108.237ZM109.737 134.833H107.404V137.833H109.737V134.833ZM108.904 136.333V129.333H105.904V136.333H108.904ZM107.404 127.833H102.737V130.833H107.404V127.833ZM104.237 129.333V127H101.237V129.333H104.237ZM109.737 137.833H116.737V134.833H109.737V137.833ZM115.237 136.333V138.667H118.237V136.333H115.237ZM116.737 137.167H109.737V140.167H116.737V137.167ZM111.237 138.667V136.333H108.237V138.667H111.237ZM121.777 128.5H126.444V125.5H121.777V128.5ZM127.944 127V122.333H124.944V127H127.944ZM126.444 123.833H128.777V120.833H126.444V123.833ZM127.277 122.333V127H130.277V122.333H127.277ZM128.777 128.5H135.777V125.5H128.777V128.5ZM134.277 127V129.333H137.277V127H134.277ZM135.777 127.833H128.777V130.833H135.777V127.833ZM127.277 129.333V136.333H130.277V129.333H127.277ZM128.777 134.833H126.444V137.833H128.777V134.833ZM127.944 136.333V129.333H124.944V136.333H127.944ZM126.444 127.833H121.777V130.833H126.444V127.833ZM123.277 129.333V127H120.277V129.333H123.277ZM128.777 137.833H135.777V134.833H128.777V137.833ZM134.277 136.333V138.667H137.277V136.333H134.277ZM135.777 137.167H128.777V140.167H135.777V137.167ZM130.277 138.667V136.333H127.277V138.667H130.277ZM140.817 128.5H143.15V125.5H140.817V128.5ZM141.65 127V136.333H144.65V127H141.65ZM143.15 134.833H140.817V137.833H143.15V134.833ZM142.317 136.333V127H139.317V136.333H142.317ZM143.15 137.833H152.483V134.833H143.15V137.833ZM150.983 136.333V138.667H153.983V136.333H150.983ZM152.483 137.167H143.15V140.167H152.483V137.167ZM144.65 138.667V136.333H141.65V138.667H144.65ZM143.15 126.167H152.483V123.167H143.15V126.167ZM150.983 124.667V127H153.983V124.667H150.983ZM152.483 125.5H143.15V128.5H152.483V125.5ZM144.65 127V124.667H141.65V127H144.65ZM152.483 128.5H154.817V125.5H152.483V128.5ZM153.317 127V136.333H156.317V127H153.317ZM154.817 134.833H152.483V137.833H154.817V134.833ZM153.983 136.333V127H150.983V136.333H153.983ZM159.856 116.833H162.19V113.833H159.856V116.833ZM160.69 115.333V136.333H163.69V115.333H160.69ZM162.19 134.833H159.856V137.833H162.19V134.833ZM161.356 136.333V115.333H158.356V136.333H161.356ZM162.19 137.833H173.856V134.833H162.19V137.833ZM172.356 136.333V138.667H175.356V136.333H172.356ZM173.856 137.167H162.19V140.167H173.856V137.167ZM163.69 138.667V136.333H160.69V138.667H163.69ZM178.896 128.5H181.23V125.5H178.896V128.5ZM179.73 127V131.667H182.73V127H179.73ZM181.23 133.167H190.563V130.167H181.23V133.167ZM189.063 131.667V134H192.063V131.667H189.063ZM190.563 132.5H181.23V135.5H190.563V132.5ZM179.73 134V136.333H182.73V134H179.73ZM181.23 134.833H178.896V137.833H181.23V134.833ZM180.396 136.333V127H177.396V136.333H180.396ZM181.23 137.833H192.896V134.833H181.23V137.833ZM191.396 136.333V138.667H194.396V136.333H191.396ZM192.896 137.167H181.23V140.167H192.896V137.167ZM182.73 138.667V136.333H179.73V138.667H182.73ZM181.23 126.167H190.563V123.167H181.23V126.167ZM189.063 124.667V127H192.063V124.667H189.063ZM190.563 125.5H181.23V128.5H190.563V125.5ZM182.73 127V124.667H179.73V127H182.73ZM190.563 128.5H192.896V125.5H190.563V128.5ZM191.396 127V131.667H194.396V127H191.396ZM192.896 130.167H190.563V133.167H192.896V130.167ZM192.063 131.667V127H189.063V131.667H192.063ZM197.936 128.5H202.603V125.5H197.936V128.5ZM204.103 127V122.333H201.103V127H204.103ZM202.603 123.833H204.936V120.833H202.603V123.833ZM203.436 122.333V127H206.436V122.333H203.436ZM204.936 128.5H211.936V125.5H204.936V128.5ZM210.436 127V129.333H213.436V127H210.436ZM211.936 127.833H204.936V130.833H211.936V127.833ZM203.436 129.333V136.333H206.436V129.333H203.436ZM204.936 134.833H202.603V137.833H204.936V134.833ZM204.103 136.333V129.333H201.103V136.333H204.103ZM202.603 127.833H197.936V130.833H202.603V127.833ZM199.436 129.333V127H196.436V129.333H199.436ZM204.936 137.833H211.936V134.833H204.936V137.833ZM210.436 136.333V138.667H213.436V136.333H210.436ZM211.936 137.167H204.936V140.167H211.936V137.167ZM206.436 138.667V136.333H203.436V138.667H206.436ZM216.976 128.5H221.642V125.5H216.976V128.5ZM223.142 127V122.333H220.142V127H223.142ZM221.642 123.833H223.976V120.833H221.642V123.833ZM222.476 122.333V127H225.476V122.333H222.476ZM223.976 128.5H230.976V125.5H223.976V128.5ZM229.476 127V129.333H232.476V127H229.476ZM230.976 127.833H223.976V130.833H230.976V127.833ZM222.476 129.333V136.333H225.476V129.333H222.476ZM223.976 134.833H221.642V137.833H223.976V134.833ZM223.142 136.333V129.333H220.142V136.333H223.142ZM221.642 127.833H216.976V130.833H221.642V127.833ZM218.476 129.333V127H215.476V129.333H218.476ZM223.976 137.833H230.976V134.833H223.976V137.833ZM229.476 136.333V138.667H232.476V136.333H229.476ZM230.976 137.167H223.976V140.167H230.976V137.167ZM225.476 138.667V136.333H222.476V138.667H225.476ZM236.016 128.5H238.349V125.5H236.016V128.5ZM236.849 127V136.333H239.849V127H236.849ZM238.349 134.833H236.016V137.833H238.349V134.833ZM237.516 136.333V127H234.516V136.333H237.516ZM238.349 137.833H247.682V134.833H238.349V137.833ZM246.182 136.333V138.667H249.182V136.333H246.182ZM247.682 137.167H238.349V140.167H247.682V137.167ZM239.849 138.667V136.333H236.849V138.667H239.849ZM238.349 126.167H247.682V123.167H238.349V126.167ZM246.182 124.667V127H249.182V124.667H246.182ZM247.682 125.5H238.349V128.5H247.682V125.5ZM239.849 127V124.667H236.849V127H239.849ZM247.682 128.5H250.016V125.5H247.682V128.5ZM248.516 127V136.333H251.516V127H248.516ZM250.016 134.833H247.682V137.833H250.016V134.833ZM249.182 136.333V127H246.182V136.333H249.182Z" fill="#373341" mask="url(#path-21-outside-4_82_1223)"/>
<rect x="13.1513" y="26.1513" width="307.698" height="136.697" stroke="#A9A8AE" stroke-width="2.3025"/>
<rect x="12" y="6.90771" width="30" height="15" fill="#A9A8AE"/>
<rect x="46" y="7" width="30" height="15" fill="#A9A8AE"/>
<rect x="80.5876" y="10" width="160" height="2" fill="#A9A8AE"/>
<rect x="80.5876" y="17" width="150" height="2" fill="#A9A8AE"/>
<path d="M161.121 78.4643L161.118 78.4659C161.082 78.4855 161.041 78.4958 161 78.4958C160.959 78.4958 160.918 78.4855 160.882 78.4659L160.879 78.4644C160.688 78.3636 158.19 77.0017 155.746 74.8619C153.277 72.699 151 69.86 151 66.8128C151.002 65.4043 151.562 64.0539 152.558 63.0579C153.554 62.0619 154.904 61.5017 156.313 61.5C158.102 61.5001 159.645 62.2672 160.6 63.5399L161 64.0724L161.4 63.5399C162.355 62.2672 163.898 61.5001 165.687 61.5C167.096 61.5017 168.446 62.0619 169.442 63.0579C170.438 64.054 170.998 65.4044 171 66.8131C171 69.8601 168.723 72.6991 166.254 74.8619C163.81 77.0017 161.312 78.3636 161.121 78.4643Z" fill="#E2A19C" stroke="#373341"/>
<path d="M0 0V-2.3025H-2.3025V0H0ZM334 0H338.605V-2.3025H334V0ZM334 178V182.605H338.605V178H334ZM0 178H-2.3025V182.605H0V178ZM0 2.3025H334V-2.3025H0V2.3025ZM329.395 0V178H338.605V0H329.395ZM334 173.395H0V182.605H334V173.395ZM2.3025 178V0H-2.3025V178H2.3025Z" fill="#373341" mask="url(#path-1-inside-1_82_1223)"/>
<defs>
<filter id="filter0_d_82_1223" x="39" y="44" width="58.5" height="52.5" filterUnits="userSpaceOnUse" color-interpolation-filters="sRGB">
<feFlood flood-opacity="0" result="BackgroundImageFix"/>
<feColorMatrix in="SourceAlpha" type="matrix" values="0 0 0 0 0 0 0 0 0 0 0 0 0 0 0 0 0 0 127 0" result="hardAlpha"/>
<feOffset dx="1.5" dy="1.5"/>
<feComposite in2="hardAlpha" operator="out"/>
<feColorMatrix type="matrix" values="0 0 0 0 0.215686 0 0 0 0 0.2 0 0 0 0 0.254902 0 0 0 1 0"/>
<feBlend mode="normal" in2="BackgroundImageFix" result="effect1_dropShadow_82_1223"/>
<feBlend mode="normal" in="SourceGraphic" in2="effect1_dropShadow_82_1223" result="shape"/>
</filter>
<filter id="filter1_i_82_1223" x="42" y="59" width="51" height="33" filterUnits="userSpaceOnUse" color-interpolation-filters="sRGB">
<feFlood flood-opacity="0" result="BackgroundImageFix"/>
<feBlend mode="normal" in="SourceGraphic" in2="BackgroundImageFix" result="shape"/>
<feColorMatrix in="SourceAlpha" type="matrix" values="0 0 0 0 0 0 0 0 0 0 0 0 0 0 0 0 0 0 127 0" result="hardAlpha"/>
<feOffset dx="6" dy="6"/>
<feComposite in2="hardAlpha" operator="arithmetic" k2="-1" k3="1"/>
<feColorMatrix type="matrix" values="0 0 0 0 1 0 0 0 0 1 0 0 0 0 1 0 0 0 0.25 0"/>
<feBlend mode="normal" in2="shape" result="effect1_innerShadow_82_1223"/>
</filter>
<filter id="filter2_d_82_1223" x="227" y="44" width="58.5" height="52.5" filterUnits="userSpaceOnUse" color-interpolation-filters="sRGB">
<feFlood flood-opacity="0" result="BackgroundImageFix"/>
<feColorMatrix in="SourceAlpha" type="matrix" values="0 0 0 0 0 0 0 0 0 0 0 0 0 0 0 0 0 0 127 0" result="hardAlpha"/>
<feOffset dx="1.5" dy="1.5"/>
<feComposite in2="hardAlpha" operator="out"/>
<feColorMatrix type="matrix" values="0 0 0 0 0.215686 0 0 0 0 0.2 0 0 0 0 0.254902 0 0 0 1 0"/>
<feBlend mode="normal" in2="BackgroundImageFix" result="effect1_dropShadow_82_1223"/>
<feBlend mode="normal" in="SourceGraphic" in2="effect1_dropShadow_82_1223" result="shape"/>
</filter>
<filter id="filter3_i_82_1223" x="230" y="59" width="51" height="33" filterUnits="userSpaceOnUse" color-interpolation-filters="sRGB">
<feFlood flood-opacity="0" result="BackgroundImageFix"/>
<feBlend mode="normal" in="SourceGraphic" in2="BackgroundImageFix" result="shape"/>
<feColorMatrix in="SourceAlpha" type="matrix" values="0 0 0 0 0 0 0 0 0 0 0 0 0 0 0 0 0 0 127 0" result="hardAlpha"/>
<feOffset dx="6" dy="6"/>
<feComposite in2="hardAlpha" operator="arithmetic" k2="-1" k3="1"/>
<feColorMatrix type="matrix" values="0 0 0 0 1 0 0 0 0 1 0 0 0 0 1 0 0 0 0.25 0"/>
<feBlend mode="normal" in2="shape" result="effect1_innerShadow_82_1223"/>
</filter>
</defs>
</svg>
