<svg width="69" height="51" viewBox="0 0 69 51" fill="none" xmlns="http://www.w3.org/2000/svg">
<line x1="0.5" y1="0.192322" x2="0.5" y2="50.1923" stroke="#A9A8AE"/>
<path d="M12.5 16V6L14 3.5L29.5 3L31.5 5.5V16L30 18.5H14.5L12.5 16Z" fill="#FFDDB5"/>
<path d="M12 11C12 7.229 12 5.343 13.172 4.172C14.343 3 16.229 3 20 3H24C27.771 3 29.657 3 30.828 4.172C32 5.343 32 7.229 32 11C32 14.771 32 16.657 30.828 17.828C29.657 19 27.771 19 24 19H20C16.229 19 14.343 19 13.172 17.828C12 16.657 12 14.771 12 11Z" stroke="#373341" stroke-width="1.5"/>
<path d="M16 7L18.159 8.8C19.996 10.33 20.914 11.095 22 11.095C23.086 11.095 24.005 10.33 25.841 8.799L28 7" stroke="#373341" stroke-width="1.5" stroke-linecap="round"/>
<g clip-path="url(#clip0_130_991)">
<path d="M39.3819 10.4375C39.3137 10.4646 39.2552 10.5116 39.214 10.5724C39.1728 10.6331 39.1508 10.7048 39.1508 10.7782C39.1508 10.8516 39.1728 10.9233 39.214 10.984C39.2552 11.0448 39.3137 11.0917 39.3819 11.1189L49.7528 15.2672C49.8218 15.2949 49.8976 15.3008 49.9702 15.2844C50.0427 15.2679 50.1085 15.2298 50.1588 15.175C50.2092 15.1203 50.2417 15.0516 50.2521 14.9779C50.2624 14.9043 50.2502 14.8292 50.2169 14.7627L48.2246 10.7782L50.2174 6.79422C50.2509 6.72765 50.2634 6.65243 50.2531 6.57859C50.2428 6.50476 50.2103 6.43581 50.1598 6.38095C50.1093 6.32608 50.0433 6.28791 49.9706 6.27151C49.8979 6.25511 49.8219 6.26126 49.7528 6.28915L39.3819 10.4375Z" fill="#E2A19C"/>
</g>
<g clip-path="url(#clip1_130_991)">
<path d="M27.1745 38.1189C27.2427 38.0917 27.3012 38.0448 27.3424 37.984C27.3836 37.9233 27.4056 37.8516 27.4056 37.7782C27.4056 37.7048 27.3836 37.6331 27.3424 37.5724C27.3012 37.5116 27.2427 37.4646 27.1745 37.4375L16.8036 33.2892C16.7345 33.2615 16.6587 33.2555 16.5862 33.272C16.5137 33.2885 16.4479 33.3266 16.3975 33.3814C16.3472 33.4361 16.3146 33.5048 16.3043 33.5785C16.2939 33.6521 16.3062 33.7272 16.3395 33.7937L18.3317 37.7782L16.339 41.7622C16.3054 41.8288 16.2929 41.904 16.3032 41.9778C16.3135 42.0516 16.3461 42.1206 16.3965 42.1754C16.447 42.2303 16.513 42.2685 16.5857 42.2849C16.6585 42.3013 16.7344 42.2951 16.8036 42.2672L27.1745 38.1189Z" fill="#4999BD"/>
</g>
<path d="M35.0564 43V33L36.5564 30.5L52.0564 30L54.0564 32.5V43L52.5564 45.5H37.0564L35.0564 43Z" fill="#FFDDB5"/>
<path d="M34.5564 38C34.5564 34.229 34.5564 32.343 35.7284 31.172C36.8994 30 38.7854 30 42.5564 30H46.5564C50.3274 30 52.2133 30 53.3843 31.172C54.5563 32.343 54.5564 34.229 54.5564 38C54.5564 41.771 54.5563 43.657 53.3843 44.828C52.2133 46 50.3274 46 46.5564 46H42.5564C38.7854 46 36.8994 46 35.7284 44.828C34.5564 43.657 34.5564 41.771 34.5564 38Z" stroke="#373341" stroke-width="1.5"/>
<path d="M38.5564 34L40.7154 35.8C42.5524 37.33 43.4704 38.095 44.5564 38.095C45.6424 38.095 46.5614 37.33 48.3974 35.799L50.5564 34" stroke="#373341" stroke-width="1.5" stroke-linecap="round"/>
<defs>
<clipPath id="clip0_130_991">
<rect width="11" height="11" fill="white" transform="translate(39 10.7782) rotate(-45)"/>
</clipPath>
<clipPath id="clip1_130_991">
<rect width="11" height="11" fill="white" transform="translate(27.5564 37.7782) rotate(135)"/>
</clipPath>
</defs>
</svg>
