<svg width="61" height="44" viewBox="0 0 61 44" fill="none" xmlns="http://www.w3.org/2000/svg">
<g clip-path="url(#clip0_130_988)">
<path d="M3.72656 12.8018H2.67188V5.23145H0.609375V4.15332H5.78906V5.23145H3.72656V12.8018ZM8.83594 12.7549C7.99219 12.7549 7.26562 12.333 6.67969 11.5127C6.09375 10.6924 5.78906 9.68457 5.78906 8.48926C5.78906 7.29395 6.09375 6.28613 6.67969 5.46582C7.26562 4.64551 7.99219 4.24707 8.83594 4.24707C9.67969 4.24707 10.4062 4.64551 10.9922 5.46582C11.5781 6.28613 11.8828 7.29395 11.8828 8.48926C11.8828 9.68457 11.5781 10.6924 10.9922 11.5127C10.4062 12.333 9.67969 12.7549 8.83594 12.7549ZM8.83594 11.7002C9.375 11.7002 9.84375 11.3955 10.2422 10.7393C10.6406 10.1064 10.8516 9.35645 10.8516 8.48926C10.8516 7.62207 10.6406 6.87207 10.2422 6.23926C9.84375 5.60645 9.375 5.30176 8.83594 5.30176C8.29688 5.30176 7.82812 5.60645 7.42969 6.23926C7.03125 6.87207 6.82031 7.62207 6.82031 8.48926C6.82031 9.37988 7.03125 10.1299 7.42969 10.7627C7.82812 11.3955 8.29688 11.7002 8.83594 11.7002ZM13.8516 12.0518C13.6641 12.0518 13.5234 12.0283 13.4531 11.958C13.4062 11.9346 13.3359 11.9346 13.2891 11.9111C13.2422 11.9111 13.1953 11.8643 13.1484 11.8174C13.0781 11.7471 13.0547 11.6768 13.0547 11.583C13.0547 11.4658 13.0781 11.3955 13.125 11.3721C13.125 11.2549 13.1484 11.1846 13.1953 11.1611C13.2188 11.0439 13.2656 10.9736 13.2891 10.9502C13.3359 10.9268 13.3594 10.9033 13.3594 10.8564C13.3828 10.8096 13.4062 10.7861 13.4531 10.7627C13.5234 10.7393 13.5703 10.7158 13.5938 10.6924C13.6875 10.6221 13.8281 10.5752 13.9688 10.5752C14.0391 10.5752 14.0859 10.5986 14.1094 10.6924C14.1328 10.7627 14.1797 10.8564 14.25 10.9502C14.3203 11.0674 14.3438 11.1377 14.3438 11.1846C14.3906 11.208 14.3906 11.3252 14.3906 11.5127C14.3906 11.7002 14.3672 11.7939 14.3438 11.8408C14.2969 11.8643 14.25 11.8877 14.2031 11.9346C14.1797 12.0049 14.0625 12.0518 13.8516 12.0518ZM13.8281 7.31738C13.6172 7.31738 13.5 7.29395 13.4766 7.24707C13.4531 7.22363 13.4062 7.2002 13.3359 7.17676C13.2891 7.15332 13.2422 7.10645 13.1719 7.05957C13.125 7.0127 13.0781 6.91895 13.0547 6.80176C13.0547 6.77832 13.0781 6.75488 13.0781 6.73145C13.1016 6.70801 13.125 6.66113 13.1484 6.59082C13.1719 6.52051 13.1953 6.47363 13.2188 6.4502C13.2188 6.40332 13.2188 6.35645 13.2656 6.35645C13.2891 6.33301 13.3125 6.30957 13.3125 6.2627C13.3125 6.21582 13.3594 6.19238 13.4062 6.16895C13.4766 6.0752 13.5469 6.02832 13.6172 6.02832C13.6406 6.00488 13.7344 5.98145 13.8516 5.98145C14.1797 5.98145 14.3672 6.30957 14.3906 6.98926C14.3906 7.03613 14.3438 7.10645 14.2031 7.2002C14.1797 7.27051 14.0625 7.31738 13.8281 7.31738Z" fill="#373341"/>
<path d="M1.91797 40.708H0.863281V32.6689L1.40234 32.1533H6.04297V33.208H1.91797V35.9033H6.04297V36.9814H1.91797V40.708ZM12.2305 40.7549H11.0586L9.67578 37.333H8.43359V40.7549H7.37891V32.7861L7.89453 32.2471H10.1211C10.8008 32.2705 11.3633 32.5283 11.8086 33.0205C12.2773 33.5127 12.4883 34.0986 12.4883 34.8018C12.4883 35.9033 11.9258 36.7236 10.7773 37.2158L12.2305 40.7549ZM10.1211 36.2783C10.4961 36.2549 10.8008 36.1143 11.082 35.833C11.3398 35.5283 11.457 35.2002 11.457 34.8018C11.457 34.3799 11.3398 34.0283 11.082 33.7471C10.8008 33.4658 10.4961 33.3252 10.1211 33.3018H8.43359V36.2783H10.1211ZM16.5664 40.7549C15.7227 40.7549 14.9961 40.333 14.4102 39.5127C13.8242 38.6924 13.5195 37.6846 13.5195 36.4893C13.5195 35.2939 13.8242 34.2861 14.4102 33.4658C14.9961 32.6455 15.7227 32.2471 16.5664 32.2471C17.4102 32.2471 18.1367 32.6455 18.7227 33.4658C19.3086 34.2861 19.6133 35.2939 19.6133 36.4893C19.6133 37.6846 19.3086 38.6924 18.7227 39.5127C18.1367 40.333 17.4102 40.7549 16.5664 40.7549ZM16.5664 39.7002C17.1055 39.7002 17.5742 39.3955 17.9727 38.7393C18.3711 38.1064 18.582 37.3564 18.582 36.4893C18.582 35.6221 18.3711 34.8721 17.9727 34.2393C17.5742 33.6064 17.1055 33.3018 16.5664 33.3018C16.0273 33.3018 15.5586 33.6064 15.1602 34.2393C14.7617 34.8721 14.5508 35.6221 14.5508 36.4893C14.5508 37.3799 14.7617 38.1299 15.1602 38.7627C15.5586 39.3955 16.0273 39.7002 16.5664 39.7002ZM27.6289 40.6846H26.5742L25.9414 35.4111L24.793 40.6846H23.7383L22.5898 35.2705L21.8398 40.6846H20.7852L21.957 32.2236H23.0117L24.2773 38.1768L25.5664 32.2236H26.6445L27.6289 40.6846ZM29.5977 40.0518C29.4102 40.0518 29.2695 40.0283 29.1992 39.958C29.1523 39.9346 29.082 39.9346 29.0352 39.9111C28.9883 39.9111 28.9414 39.8643 28.8945 39.8174C28.8242 39.7471 28.8008 39.6768 28.8008 39.583C28.8008 39.4658 28.8242 39.3955 28.8711 39.3721C28.8711 39.2549 28.8945 39.1846 28.9414 39.1611C28.9648 39.0439 29.0117 38.9736 29.0352 38.9502C29.082 38.9268 29.1055 38.9033 29.1055 38.8564C29.1289 38.8096 29.1523 38.7861 29.1992 38.7627C29.2695 38.7393 29.3164 38.7158 29.3398 38.6924C29.4336 38.6221 29.5742 38.5752 29.7148 38.5752C29.7852 38.5752 29.832 38.5986 29.8555 38.6924C29.8789 38.7627 29.9258 38.8564 29.9961 38.9502C30.0664 39.0674 30.0898 39.1377 30.0898 39.1846C30.1367 39.208 30.1367 39.3252 30.1367 39.5127C30.1367 39.7002 30.1133 39.7939 30.0898 39.8408C30.043 39.8643 29.9961 39.8877 29.9492 39.9346C29.9258 40.0049 29.8086 40.0518 29.5977 40.0518ZM29.5742 35.3174C29.3633 35.3174 29.2461 35.2939 29.2227 35.2471C29.1992 35.2236 29.1523 35.2002 29.082 35.1768C29.0352 35.1533 28.9883 35.1064 28.918 35.0596C28.8711 35.0127 28.8242 34.9189 28.8008 34.8018C28.8008 34.7783 28.8242 34.7549 28.8242 34.7314C28.8477 34.708 28.8711 34.6611 28.8945 34.5908C28.918 34.5205 28.9414 34.4736 28.9648 34.4502C28.9648 34.4033 28.9648 34.3564 29.0117 34.3564C29.0352 34.333 29.0586 34.3096 29.0586 34.2627C29.0586 34.2158 29.1055 34.1924 29.1523 34.1689C29.2227 34.0752 29.293 34.0283 29.3633 34.0283C29.3867 34.0049 29.4805 33.9814 29.5977 33.9814C29.9258 33.9814 30.1133 34.3096 30.1367 34.9893C30.1367 35.0361 30.0898 35.1064 29.9492 35.2002C29.9258 35.2705 29.8086 35.3174 29.5742 35.3174Z" fill="#373341"/>
<path d="M3.72656 12.8018H2.67188V5.23145H0.609375V4.15332H5.78906V5.23145H3.72656V12.8018ZM8.83594 12.7549C7.99219 12.7549 7.26562 12.333 6.67969 11.5127C6.09375 10.6924 5.78906 9.68457 5.78906 8.48926C5.78906 7.29395 6.09375 6.28613 6.67969 5.46582C7.26562 4.64551 7.99219 4.24707 8.83594 4.24707C9.67969 4.24707 10.4062 4.64551 10.9922 5.46582C11.5781 6.28613 11.8828 7.29395 11.8828 8.48926C11.8828 9.68457 11.5781 10.6924 10.9922 11.5127C10.4062 12.333 9.67969 12.7549 8.83594 12.7549ZM8.83594 11.7002C9.375 11.7002 9.84375 11.3955 10.2422 10.7393C10.6406 10.1064 10.8516 9.35645 10.8516 8.48926C10.8516 7.62207 10.6406 6.87207 10.2422 6.23926C9.84375 5.60645 9.375 5.30176 8.83594 5.30176C8.29688 5.30176 7.82812 5.60645 7.42969 6.23926C7.03125 6.87207 6.82031 7.62207 6.82031 8.48926C6.82031 9.37988 7.03125 10.1299 7.42969 10.7627C7.82812 11.3955 8.29688 11.7002 8.83594 11.7002ZM13.8516 12.0518C13.6641 12.0518 13.5234 12.0283 13.4531 11.958C13.4062 11.9346 13.3359 11.9346 13.2891 11.9111C13.2422 11.9111 13.1953 11.8643 13.1484 11.8174C13.0781 11.7471 13.0547 11.6768 13.0547 11.583C13.0547 11.4658 13.0781 11.3955 13.125 11.3721C13.125 11.2549 13.1484 11.1846 13.1953 11.1611C13.2188 11.0439 13.2656 10.9736 13.2891 10.9502C13.3359 10.9268 13.3594 10.9033 13.3594 10.8564C13.3828 10.8096 13.4062 10.7861 13.4531 10.7627C13.5234 10.7393 13.5703 10.7158 13.5938 10.6924C13.6875 10.6221 13.8281 10.5752 13.9688 10.5752C14.0391 10.5752 14.0859 10.5986 14.1094 10.6924C14.1328 10.7627 14.1797 10.8564 14.25 10.9502C14.3203 11.0674 14.3438 11.1377 14.3438 11.1846C14.3906 11.208 14.3906 11.3252 14.3906 11.5127C14.3906 11.7002 14.3672 11.7939 14.3438 11.8408C14.2969 11.8643 14.25 11.8877 14.2031 11.9346C14.1797 12.0049 14.0625 12.0518 13.8516 12.0518ZM13.8281 7.31738C13.6172 7.31738 13.5 7.29395 13.4766 7.24707C13.4531 7.22363 13.4062 7.2002 13.3359 7.17676C13.2891 7.15332 13.2422 7.10645 13.1719 7.05957C13.125 7.0127 13.0781 6.91895 13.0547 6.80176C13.0547 6.77832 13.0781 6.75488 13.0781 6.73145C13.1016 6.70801 13.125 6.66113 13.1484 6.59082C13.1719 6.52051 13.1953 6.47363 13.2188 6.4502C13.2188 6.40332 13.2188 6.35645 13.2656 6.35645C13.2891 6.33301 13.3125 6.30957 13.3125 6.2627C13.3125 6.21582 13.3594 6.19238 13.4062 6.16895C13.4766 6.0752 13.5469 6.02832 13.6172 6.02832C13.6406 6.00488 13.7344 5.98145 13.8516 5.98145C14.1797 5.98145 14.3672 6.30957 14.3906 6.98926C14.3906 7.03613 14.3438 7.10645 14.2031 7.2002C14.1797 7.27051 14.0625 7.31738 13.8281 7.31738Z" fill="#373341"/>
<path d="M1.91797 40.708H0.863281V32.6689L1.40234 32.1533H6.04297V33.208H1.91797V35.9033H6.04297V36.9814H1.91797V40.708ZM12.2305 40.7549H11.0586L9.67578 37.333H8.43359V40.7549H7.37891V32.7861L7.89453 32.2471H10.1211C10.8008 32.2705 11.3633 32.5283 11.8086 33.0205C12.2773 33.5127 12.4883 34.0986 12.4883 34.8018C12.4883 35.9033 11.9258 36.7236 10.7773 37.2158L12.2305 40.7549ZM10.1211 36.2783C10.4961 36.2549 10.8008 36.1143 11.082 35.833C11.3398 35.5283 11.457 35.2002 11.457 34.8018C11.457 34.3799 11.3398 34.0283 11.082 33.7471C10.8008 33.4658 10.4961 33.3252 10.1211 33.3018H8.43359V36.2783H10.1211ZM16.5664 40.7549C15.7227 40.7549 14.9961 40.333 14.4102 39.5127C13.8242 38.6924 13.5195 37.6846 13.5195 36.4893C13.5195 35.2939 13.8242 34.2861 14.4102 33.4658C14.9961 32.6455 15.7227 32.2471 16.5664 32.2471C17.4102 32.2471 18.1367 32.6455 18.7227 33.4658C19.3086 34.2861 19.6133 35.2939 19.6133 36.4893C19.6133 37.6846 19.3086 38.6924 18.7227 39.5127C18.1367 40.333 17.4102 40.7549 16.5664 40.7549ZM16.5664 39.7002C17.1055 39.7002 17.5742 39.3955 17.9727 38.7393C18.3711 38.1064 18.582 37.3564 18.582 36.4893C18.582 35.6221 18.3711 34.8721 17.9727 34.2393C17.5742 33.6064 17.1055 33.3018 16.5664 33.3018C16.0273 33.3018 15.5586 33.6064 15.1602 34.2393C14.7617 34.8721 14.5508 35.6221 14.5508 36.4893C14.5508 37.3799 14.7617 38.1299 15.1602 38.7627C15.5586 39.3955 16.0273 39.7002 16.5664 39.7002ZM27.6289 40.6846H26.5742L25.9414 35.4111L24.793 40.6846H23.7383L22.5898 35.2705L21.8398 40.6846H20.7852L21.957 32.2236H23.0117L24.2773 38.1768L25.5664 32.2236H26.6445L27.6289 40.6846ZM29.5977 40.0518C29.4102 40.0518 29.2695 40.0283 29.1992 39.958C29.1523 39.9346 29.082 39.9346 29.0352 39.9111C28.9883 39.9111 28.9414 39.8643 28.8945 39.8174C28.8242 39.7471 28.8008 39.6768 28.8008 39.583C28.8008 39.4658 28.8242 39.3955 28.8711 39.3721C28.8711 39.2549 28.8945 39.1846 28.9414 39.1611C28.9648 39.0439 29.0117 38.9736 29.0352 38.9502C29.082 38.9268 29.1055 38.9033 29.1055 38.8564C29.1289 38.8096 29.1523 38.7861 29.1992 38.7627C29.2695 38.7393 29.3164 38.7158 29.3398 38.6924C29.4336 38.6221 29.5742 38.5752 29.7148 38.5752C29.7852 38.5752 29.832 38.5986 29.8555 38.6924C29.8789 38.7627 29.9258 38.8564 29.9961 38.9502C30.0664 39.0674 30.0898 39.1377 30.0898 39.1846C30.1367 39.208 30.1367 39.3252 30.1367 39.5127C30.1367 39.7002 30.1133 39.7939 30.0898 39.8408C30.043 39.8643 29.9961 39.8877 29.9492 39.9346C29.9258 40.0049 29.8086 40.0518 29.5977 40.0518ZM29.5742 35.3174C29.3633 35.3174 29.2461 35.2939 29.2227 35.2471C29.1992 35.2236 29.1523 35.2002 29.082 35.1768C29.0352 35.1533 28.9883 35.1064 28.918 35.0596C28.8711 35.0127 28.8242 34.9189 28.8008 34.8018C28.8008 34.7783 28.8242 34.7549 28.8242 34.7314C28.8477 34.708 28.8711 34.6611 28.8945 34.5908C28.918 34.5205 28.9414 34.4736 28.9648 34.4502C28.9648 34.4033 28.9648 34.3564 29.0117 34.3564C29.0352 34.333 29.0586 34.3096 29.0586 34.2627C29.0586 34.2158 29.1055 34.1924 29.1523 34.1689C29.2227 34.0752 29.293 34.0283 29.3633 34.0283C29.3867 34.0049 29.4805 33.9814 29.5977 33.9814C29.9258 33.9814 30.1133 34.3096 30.1367 34.9893C30.1367 35.0361 30.0898 35.1064 29.9492 35.2002C29.9258 35.2705 29.8086 35.3174 29.5742 35.3174Z" fill="#373341"/>
</g>
<defs>
<clipPath id="clip0_130_988">
<rect width="61" height="44" fill="white"/>
</clipPath>
</defs>
</svg>
